<?xml version="1.0" encoding="utf-8"?>
<!-- Generator: Adobe Illustrator 21.1.0, SVG Export Plug-In . SVG Version: 6.00 Build 0)  -->
<svg version="1.1" id="Layer_1" xmlns="http://www.w3.org/2000/svg" xmlns:xlink="http://www.w3.org/1999/xlink" x="0px" y="0px"
     viewBox="0 0 181 73.2" style="enable-background:new 0 0 181 73.2;" xml:space="preserve" width="450px">
<style type="text/css">
    .st0{clip-path:url(#SVGID_3_);fill:#170630;}
    .st1{clip-path:url(#SVGID_3_);fill:url(#SVGID_4_);}
    .st2{clip-path:url(#SVGID_3_);fill:url(#SVGID_5_);}
    .st3{clip-path:url(#SVGID_3_);fill:#FFE627;}
    .st4{fill:#FFFFFF;}
    .st5{fill:#232323;}
    .st6{fill:none;stroke:#B9B450;stroke-width:0.5;stroke-miterlimit:10;}
    .st7{fill:#170630;}
    .st8{fill:#5C5BE9;}
</style>
<g>
    <defs>
        <path id="SVGID_1_" d="M57.9,29.3c-0.2,16-13.3,28.9-29.3,28.7S-0.2,44.7,0,28.7S13.3-0.2,29.3,0S58.1,13.3,57.9,29.3z"/>
    </defs>
    <linearGradient id="SVGID_2_" gradientUnits="userSpaceOnUse" x1="0" y1="29.0222" x2="57.938" y2="29.0222">
        <stop  offset="0" style="stop-color:#5C5BE9"/>
        <stop  offset="1" style="stop-color:#24CEEF"/>
    </linearGradient>
    <use xlink:href="#SVGID_1_"  style="overflow:visible;fill:url(#SVGID_2_);"/>
    <clipPath id="SVGID_3_">
        <use xlink:href="#SVGID_1_"  style="overflow:visible;"/>
    </clipPath>
    
        <ellipse transform="matrix(1.066584e-02 -0.9999 0.9999 1.066584e-02 -0.3605 57.68)" class="st0" cx="29" cy="29" rx="29" ry="29"/>
    <linearGradient id="SVGID_4_" gradientUnits="userSpaceOnUse" x1="32.8797" y1="18.5977" x2="90.2447" y2="18.5977">
        <stop  offset="0" style="stop-color:#5C5BE9"/>
        <stop  offset="1" style="stop-color:#24CEEF"/>
    </linearGradient>
    <path class="st1" d="M90.2,18.8c-0.1,15.9-13.1,28.6-28.9,28.5s-28.6-13.1-28.4-29S46-10.3,61.8-10.1S90.4,3,90.2,18.8z"/>
    <linearGradient id="SVGID_5_" gradientUnits="userSpaceOnUse" x1="7.8831" y1="63.4163" x2="39.7407" y2="63.4163">
        <stop  offset="0" style="stop-color:#5C5BE9"/>
        <stop  offset="1" style="stop-color:#24CEEF"/>
    </linearGradient>
    <path class="st2" d="M35,74.8c-6.3,6.2-16.4,6.1-22.5-0.2C6.3,68.3,6.4,58.2,12.6,52s16.4-6.1,22.5,0.2S41.3,68.6,35,74.8z"/>
    <path class="st3" d="M12.4,26.3c2.2-2.2,5.8-2.1,8,0.1s2.2,5.9,0,8.1c-2.2,2.2-5.8,2.1-8-0.1C10.1,32.1,10.1,28.5,12.4,26.3z"/>
</g>
<ellipse transform="matrix(0.9988 -4.910853e-02 4.910853e-02 0.9988 -2.0076 2.7283)" class="st4" cx="54.5" cy="42.2" rx="5.9" ry="5.9"/>
<ellipse transform="matrix(0.9988 -4.910853e-02 4.910853e-02 0.9988 -2.0877 2.4803)" class="st4" cx="49.4" cy="43.7" rx="5.9" ry="5.9"/>
<ellipse transform="matrix(7.720762e-02 -0.997 0.997 7.720762e-02 -9.8358 89.019)" class="st4" cx="43.2" cy="49.8" rx="5.9" ry="5.9"/>
<ellipse transform="matrix(7.720762e-02 -0.997 0.997 7.720762e-02 -16.3872 92.0432)" class="st4" cx="41.5" cy="54.9" rx="5.9" ry="5.9"/>
<path class="st4" d="M47.6,40.8l-0.1,0.1C47.5,40.9,47.5,40.9,47.6,40.8z"/>
<path class="st4" d="M40.4,47.8l-0.1,0.1C40.3,47.9,40.4,47.8,40.4,47.8z"/>
<path class="st4" d="M40.4,47.8l7-6.8C46.6,41.4,41,41.3,6.3,5.8l0,0C40.9,41.4,40.9,46.9,40.4,47.8z"/>
<ellipse transform="matrix(0.9988 -4.910853e-02 4.910853e-02 0.9988 -2.0076 2.7283)" class="st4" cx="54.5" cy="42.2" rx="5.9" ry="5.9"/>
<ellipse transform="matrix(0.9988 -4.910853e-02 4.910853e-02 0.9988 -2.0877 2.4803)" class="st4" cx="49.4" cy="43.7" rx="5.9" ry="5.9"/>
<path class="st5" d="M7.2,9.1l1.2-1.2l1.2-1.2c0,0,0.3-0.3-0.8-0.3c-0.7,0-1.3,0.1-3.9-2.1l0,0l0,0c2.1,2.6,2,3.2,2,4
    C6.9,9.4,7.2,9.1,7.2,9.1z"/>
<circle class="st4" cx="29" cy="10.6" r="0.4"/>
<ellipse class="st4" cx="20.3" cy="39.7" rx="1.2" ry="1.2"/>
<circle class="st4" cx="11.2" cy="41.5" r="0.7"/>
<circle class="st4" cx="29.2" cy="42.8" r="0.2"/>
<circle class="st4" cx="31.1" cy="23.3" r="0.4"/>
<circle class="st4" cx="25.8" cy="43.5" r="0.5"/>
<circle class="st4" cx="9.1" cy="14" r="0.6"/>
<circle class="st4" cx="26.7" cy="11.7" r="0.2"/>
<circle class="st4" cx="22.8" cy="7.7" r="0.3"/>
<polygon class="st4" points="81.2,2.7 78.1,2.7 73.7,2.7 62.7,30.3 65.9,2.7 61.6,2.7 58.5,2.7 54.1,2.7 48.8,58.8 53.1,58.8 
    57.7,58.8 62,58.8 85.5,2.7 "/>
<path class="st6" d="M82.6,7.1L60.9,59h-8.2l5-51.9h6.9l-4.6,39.6L75.7,7.1H82.6z"/>
<path class="st6" d="M78.3,59c-3.8,0-5.1-2-4.1-5.9l5.9-22.8c1.1-4,3.4-5.9,7.1-5.9h3.9c3.7,0,5.1,2,4,5.9l-5.9,22.8
    c-1,3.9-3.4,5.9-7.1,5.9H78.3z M82.2,55.1c0.5,0,1-0.1,1.5-0.4c0.4-0.3,0.7-0.7,0.9-1.3l6-23.3c0.3-1.2-0.1-1.8-1.3-1.8h-2.2
    c-1.2,0-1.9,0.6-2.3,1.8l-6,23.3c-0.3,1.2,0.1,1.8,1.3,1.8H82.2z"/>
<path class="st6" d="M102.7,39.4l7-15h4.6l-11.5,22.8l-3,11.8h-4.6l3.3-12.7l0-21.9h4.6l-0.4,15H102.7z"/>
<path class="st6" d="M111.4,59h-4.6l7.4-28.7c1.1-4,3.4-5.9,7.1-5.9h3.5c3.7,0,5,2,4,5.9L121.3,59h-4.6l3.3-12.7h-5.3L111.4,59z
     M121,42.1l3-11.5c0.3-1.3-0.2-2-1.5-2h-1.3c-1.4,0-2.2,0.7-2.5,2l-3,11.5H121z"/>
<path class="st6" d="M135.7,45.8l1-3.9h7.4l-4.3,17h-8.9c-3.7,0-5.1-2-4-5.9l5.9-22.8c1-3.9,3.4-5.9,7-5.9h3c3.7,0,5.1,2,4,5.9
    l-1.3,4.9H141l1.2-4.5c0.2-0.8,0.2-1.3,0-1.6s-0.7-0.4-1.5-0.4h-0.9c-1.3,0-2,0.7-2.4,2l-5.7,22.2c-0.2,0.7-0.2,1.3,0,1.6
    c0.2,0.3,0.6,0.5,1.3,0.5h3.3l2.3-9H135.7z"/>
<path class="st6" d="M144.1,59l8.9-34.6h10.2l-1,3.9h-5.6L153.6,40h5.6l-1,3.9h-5.6l-2.9,11.2h5.6l-1,3.9H144.1z"/>
<path class="st6" d="M168.4,59l0.6-14h-2.8l-3.6,14h-4.6l8.9-34.6h9c3.6,0,4.8,2,3.8,5.9l-2.2,8.5c-0.8,3-2.2,4.9-4.2,5.7L172.8,59
    H168.4z M167.2,41h3c1.4,0,2.3-0.8,2.7-2.5l1.9-7.5c0.4-1.7,0-2.5-1.4-2.5h-3L167.2,41z"/>
<path class="st7" d="M83.6,6.1L61.9,58h-8.2l5-51.9h6.9l-4.6,39.6L76.7,6.1H83.6z M83.6,6.1L61.9,58h-8.2l5-51.9h6.9l-4.6,39.6
    L76.7,6.1H83.6z"/>
<path class="st7" d="M79.3,58c-3.8,0-5.1-2-4.1-5.9l5.9-22.8c1.1-4,3.4-5.9,7.1-5.9h3.9c3.7,0,5.1,2,4,5.9l-5.9,22.8
    c-1,3.9-3.4,5.9-7.1,5.9H79.3z M83.2,54.1c0.5,0,1-0.1,1.5-0.4c0.4-0.3,0.7-0.7,0.9-1.3l6-23.3c0.3-1.2-0.1-1.8-1.3-1.8h-2.2
    c-1.2,0-1.9,0.6-2.3,1.8l-6,23.3c-0.3,1.2,0.1,1.8,1.3,1.8H83.2z"/>
<path class="st7" d="M103.7,38.4l7-15h4.6l-11.5,22.8l-3,11.8h-4.6l3.3-12.7l0-21.9h4.6l-0.4,15H103.7z"/>
<path class="st7" d="M112.4,58h-4.6l7.4-28.7c1.1-4,3.4-5.9,7.1-5.9h3.5c3.7,0,5.1,2,4,5.9L122.3,58h-4.6l3.3-12.7h-5.3L112.4,58z
     M122,41.1l3-11.5c0.3-1.3-0.2-2-1.5-2h-1.3c-1.4,0-2.2,0.7-2.5,2l-3,11.5H122z"/>
<path class="st7" d="M136.7,44.8l1-3.9h7.4l-4.3,17h-8.9c-3.7,0-5.1-2-4-5.9l5.9-22.8c1-3.9,3.4-5.9,7-5.9h3c3.7,0,5.1,2,4,5.9
    l-1.3,4.9H142l1.2-4.5c0.2-0.8,0.2-1.3,0-1.6c-0.2-0.3-0.7-0.4-1.5-0.4h-0.9c-1.3,0-2,0.7-2.4,2l-5.7,22.2c-0.2,0.7-0.2,1.3,0,1.6
    c0.2,0.3,0.6,0.5,1.3,0.5h3.3l2.3-9H136.7z"/>
<path class="st7" d="M145.1,58l8.9-34.6h10.2l-1,3.9h-5.6L154.6,39h5.6l-1,3.9h-5.6l-2.9,11.2h5.6l-1,3.9H145.1z"/>
<path class="st7" d="M169.4,58l0.6-14h-2.8l-3.6,14h-4.6l8.9-34.6h9c3.6,0,4.8,2,3.8,5.9l-2.2,8.5c-0.8,3-2.2,4.9-4.2,5.7L173.8,58
    H169.4z M168.2,40h3c1.4,0,2.3-0.8,2.7-2.5l1.9-7.5c0.4-1.7,0-2.5-1.4-2.5h-3L168.2,40z"/>
<g>
    <path class="st8" d="M51.7,73.2h-1.2l1.8-7.1c0.3-1,0.9-1.5,1.8-1.5H55c0.9,0,1.3,0.5,1,1.5l-1.8,7.1H53l0.8-3.2h-1.3L51.7,73.2z
         M54.1,69l0.7-2.9c0.1-0.3,0-0.5-0.4-0.5h-0.3c-0.3,0-0.6,0.2-0.6,0.5L52.7,69H54.1z"/>
    <path class="st8" d="M61.7,64.6h1.2l-2.2,8.6h-1.2l0.4-1.7l-0.2-3.9l-1.5,5.6h-1.2l2.2-8.6h1.2l0.2,4.2L61.7,64.6z"/>
    <path class="st8" d="M63,73.2c-0.9,0-1.3-0.5-1-1.5l1.5-5.7c0.3-1,0.9-1.5,1.8-1.5h1c0.9,0,1.3,0.5,1,1.5l-1.5,5.7
        c-0.3,1-0.8,1.5-1.8,1.5H63z M64,72.2c0.1,0,0.3,0,0.4-0.1c0.1-0.1,0.2-0.2,0.2-0.3l1.5-5.8c0.1-0.3,0-0.4-0.3-0.4h-0.5
        c-0.3,0-0.5,0.1-0.6,0.4l-1.5,5.8c-0.1,0.3,0,0.4,0.3,0.4H64z"/>
    <path class="st8" d="M68.7,64.6h2c0.5,0,0.9,0.1,1.1,0.4c0.2,0.2,0.2,0.6,0.1,1.2l-1.5,5.8c-0.2,0.8-0.8,1.2-1.7,1.2h-2.2
        L68.7,64.6z M67.9,72.2h0.9c0.2,0,0.3,0,0.4-0.1c0.1-0.1,0.1-0.2,0.2-0.3l1.4-5.5c0.1-0.4,0-0.6-0.3-0.6h-0.8L67.9,72.2z"/>
    <path class="st8" d="M71.1,73.2l2.2-8.6h2.5l-0.2,1h-1.4l-0.8,2.9h1.4l-0.2,1h-1.4l-0.7,2.8h1.4l-0.2,1H71.1z"/>
    <path class="st8" d="M76.1,71.7l-0.4,1.5h-1.2l0.4-1.5H76.1z"/>
    <path class="st8" d="M76.7,72.2h0.9c0.1,0,0.2,0,0.3-0.1c0.1-0.1,0.2-0.2,0.2-0.3l1.9-7.2h1.2l-1.8,7.2c-0.3,1-0.8,1.5-1.7,1.5
        h-1.1L76.7,72.2z"/>
    <path class="st8" d="M81.4,71.9c-0.1,0.2,0,0.4,0.3,0.4h0.5c0.2,0,0.4-0.1,0.4-0.4l0.5-1.8c0-0.2,0-0.3,0-0.3s-0.1-0.1-0.2-0.2
        l-1.1-0.9c-0.2-0.2-0.3-0.4-0.4-0.6s0-0.5,0.1-0.7l0.4-1.5c0.1-0.5,0.3-0.8,0.6-1c0.3-0.2,0.7-0.3,1.1-0.3h0.6c0.9,0,1.3,0.5,1,1.5
        l-0.3,1.2h-1.2l0.3-1.3c0.1-0.2,0-0.4-0.3-0.4h-0.3c-0.3,0-0.4,0.1-0.5,0.4l-0.4,1.7c0,0.2,0,0.3,0,0.3c0,0.1,0.1,0.1,0.2,0.2
        l1.1,0.9c0.2,0.1,0.3,0.3,0.3,0.5c0,0.2,0,0.4-0.1,0.7l-0.4,1.7c-0.1,0.5-0.3,0.8-0.6,1c-0.3,0.2-0.7,0.3-1.1,0.3h-0.7
        c-0.9,0-1.3-0.5-1-1.6l0.2-0.7h1.2L81.4,71.9z"/>
    <path class="st8" d="M88.4,73.2h-1.2l0.9-8.6h1.1L88.4,71l2.5-6.5h0.9L90.9,71l2.5-6.5h1.1L91,73.2h-1.2l0.6-5L88.4,73.2z"/>
    <path class="st8" d="M93,73.2l2.2-8.6h2.5l-0.2,1h-1.4l-0.8,2.9h1.4l-0.2,1h-1.4l-0.7,2.8h1.4l-0.2,1H93z"/>
    <path class="st8" d="M100.3,68.9c0.3,0,0.5,0.1,0.6,0.2c0.1,0.1,0.1,0.4,0,0.7l-0.5,2.1c-0.1,0.2-0.1,0.4-0.2,0.6s-0.2,0.3-0.3,0.4
        c-0.1,0.1-0.3,0.2-0.5,0.2c-0.2,0.1-0.4,0.1-0.7,0.1h-2.3l2.2-8.6h1.8c1,0,1.4,0.5,1.1,1.6l-0.5,1.8c-0.1,0.3-0.2,0.5-0.3,0.6
        S100.5,68.9,100.3,68.9z M97.8,72.2h1c0.2,0,0.4-0.1,0.5-0.4l0.5-1.8c0.1-0.4-0.1-0.6-0.5-0.6h-0.6L97.8,72.2z M98.8,68.5h0.5
        c0.2,0,0.4,0,0.5-0.1c0.1-0.1,0.2-0.2,0.2-0.4l0.5-1.8c0.1-0.4,0-0.6-0.3-0.6h-0.6L98.8,68.5z"/>
    <path class="st8" d="M104,73.2h-1.2l1.8-7.1c0.3-1,0.9-1.5,1.8-1.5h0.9c0.9,0,1.3,0.5,1,1.5l-1.8,7.1h-1.2l0.8-3.2h-1.3L104,73.2z
         M106.4,69l0.7-2.9c0.1-0.3,0-0.5-0.4-0.5h-0.3c-0.3,0-0.6,0.2-0.6,0.5l-0.7,2.9H106.4z"/>
    <path class="st8" d="M108.6,73.2h-1.2l2.2-8.6h2.2c0.9,0,1.3,0.5,1,1.5l-0.6,2.2c-0.2,0.6-0.5,1-0.9,1.3c-0.4,0.3-1,0.4-1.8,0.4
        h-0.2L108.6,73.2z M109.7,69h0.2c0.4,0,0.6-0.1,0.9-0.2c0.2-0.1,0.4-0.4,0.4-0.7l0.6-2.2c0.1-0.3,0-0.4-0.3-0.4h-0.9L109.7,69z"/>
    <path class="st8" d="M113.1,73.2H112l2.2-8.6h2.2c0.9,0,1.3,0.5,1,1.5l-0.6,2.2c-0.2,0.6-0.5,1-0.9,1.3c-0.4,0.3-1,0.4-1.8,0.4H114
        L113.1,73.2z M114.2,69h0.2c0.4,0,0.6-0.1,0.9-0.2c0.2-0.1,0.4-0.4,0.4-0.7l0.6-2.2c0.1-0.3,0-0.4-0.3-0.4h-0.9L114.2,69z"/>
    <path class="st8" d="M122.1,68.5l-0.2,1h-1.4l-1,3.8h-1.2l2.2-8.6h2.5l-0.2,1h-1.4l-0.8,2.9H122.1z"/>
    <path class="st8" d="M124.3,73.2l0.1-3.5h-0.7l-0.9,3.5h-1.2l2.2-8.6h2.3c0.9,0,1.2,0.5,0.9,1.5l-0.5,2.1c-0.2,0.8-0.6,1.2-1.1,1.4
        l-0.1,3.6H124.3z M124,68.7h0.8c0.3,0,0.6-0.2,0.7-0.6l0.5-1.9c0.1-0.4,0-0.6-0.3-0.6h-0.8L124,68.7z"/>
    <path class="st8" d="M127.4,73.2h-1.2l1.8-7.1c0.3-1,0.9-1.5,1.8-1.5h0.9c0.9,0,1.3,0.5,1,1.5l-1.8,7.1h-1.2l0.8-3.2h-1.3
        L127.4,73.2z M129.8,69l0.7-2.9c0.1-0.3,0-0.5-0.4-0.5h-0.3c-0.3,0-0.6,0.2-0.6,0.5l-0.7,2.9H129.8z"/>
    <path class="st8" d="M134.1,69.6l2.4-5.1h1.3l-2.2,8.6h-1.2l1.6-5.6l-1.9,4.1h-0.9l0.2-4.1l-1.3,5.6h-1.2l2.2-8.6h1.3L134.1,69.6z"
        />
    <path class="st8" d="M136.5,73.2l2.2-8.6h2.5l-0.2,1h-1.4l-0.8,2.9h1.4l-0.2,1h-1.4l-0.7,2.8h1.4l-0.2,1H136.5z"/>
    <path class="st8" d="M142.1,73.2h-1.2l0.9-8.6h1.1l-0.9,6.5l2.5-6.5h0.9l-0.9,6.5l2.5-6.5h1.1l-3.5,8.6h-1.2l0.6-5L142.1,73.2z"/>
    <path class="st8" d="M148,73.2c-0.9,0-1.3-0.5-1-1.5l1.5-5.7c0.3-1,0.9-1.5,1.8-1.5h1c0.9,0,1.3,0.5,1,1.5l-1.5,5.7
        c-0.3,1-0.8,1.5-1.8,1.5H148z M149,72.2c0.1,0,0.3,0,0.4-0.1c0.1-0.1,0.2-0.2,0.2-0.3l1.5-5.8c0.1-0.3,0-0.4-0.3-0.4h-0.5
        c-0.3,0-0.5,0.1-0.6,0.4l-1.5,5.8c-0.1,0.3,0,0.4,0.3,0.4H149z"/>
    <path class="st8" d="M154,73.2l0.1-3.5h-0.7l-0.9,3.5h-1.2l2.2-8.6h2.3c0.9,0,1.2,0.5,0.9,1.5l-0.5,2.1c-0.2,0.8-0.6,1.2-1.1,1.4
        l-0.1,3.6H154z M153.7,68.7h0.8c0.3,0,0.6-0.2,0.7-0.6l0.5-1.9c0.1-0.4,0-0.6-0.3-0.6h-0.8L153.7,68.7z"/>
    <path class="st8" d="M158.2,68.9l2.4-4.3h1.1l-2.4,4.3l0.4,4.3h-1.2L158.2,68.9l-1.1,4.3h-1.2l2.2-8.6h1.2L158.2,68.9z"/>
</g>
</svg>
